<?xml version="1.0" standalone="no"?>
<!DOCTYPE svg PUBLIC "-//W3C//DTD SVG 20010904//EN"
 "http://www.w3.org/TR/2001/REC-SVG-20010904/DTD/svg10.dtd">
<svg version="1.0" xmlns="http://www.w3.org/2000/svg"
 width="1266.000000pt" height="964.000000pt" viewBox="0 0 1266.000000 964.000000"
 preserveAspectRatio="xMidYMid meet">

<g transform="translate(0.000000,964.000000) scale(0.100000,-0.100000)"
fill="#000000" stroke="none">
<path d="M2867 7813 c-4 -3 -7 -57 -7 -118 0 -83 4 -116 14 -124 9 -7 97 -12
265 -14 l253 -2 34 -38 34 -37 -3 -638 c-3 -576 -5 -643 -21 -697 -10 -33 -23
-65 -29 -70 -7 -6 -23 -31 -36 -57 -14 -25 -34 -52 -45 -58 -51 -27 -69 -39
-75 -49 -17 -28 -272 -54 -315 -32 -12 6 -37 14 -56 19 -39 9 -46 31 -14 47
11 5 28 17 36 25 9 8 30 26 47 40 17 14 31 30 31 36 0 7 7 14 15 18 8 3 15 14
15 23 0 10 6 28 14 39 19 26 13 151 -8 193 -25 47 -83 101 -133 122 -32 14
-68 19 -128 19 -93 0 -129 -15 -190 -78 -55 -57 -65 -71 -65 -93 0 -12 -5 -40
-12 -61 -22 -75 21 -270 68 -309 8 -6 14 -17 14 -23 0 -12 111 -126 123 -126
4 0 29 -16 56 -35 26 -19 55 -35 62 -35 8 0 28 -7 44 -16 17 -8 53 -18 80 -21
28 -3 56 -11 64 -17 9 -7 83 -11 215 -11 175 0 204 2 226 18 13 9 39 17 56 17
17 0 37 7 44 15 7 8 26 15 42 15 16 0 31 6 34 15 3 8 16 17 27 21 72 22 257
211 257 262 0 11 6 22 14 25 7 3 16 25 20 48 4 24 12 50 19 58 9 10 13 181 15
690 l3 675 31 31 c30 30 32 30 141 31 l109 2 0 121 c-1 67 -4 126 -7 131 -7
11 -1367 14 -1378 3z"/>
<path d="M8942 3008 c-4 -4 -6 -63 -4 -132 l3 -126 113 0 c110 0 113 -1 139
-28 l27 -28 0 -757 0 -756 -25 -25 c-24 -24 -33 -26 -141 -28 l-116 -3 1 -125
c0 -69 1 -128 1 -133 0 -4 192 -6 428 -5 l427 3 3 130 3 130 -113 0 c-110 0
-114 1 -140 28 l-28 28 0 605 c0 530 2 605 15 610 21 8 45 -14 45 -41 0 -12 7
-28 15 -35 8 -7 15 -18 15 -25 0 -7 9 -24 20 -38 11 -14 20 -32 20 -41 0 -9 9
-25 20 -36 11 -11 20 -27 20 -34 0 -8 13 -34 29 -58 16 -24 31 -53 35 -65 4
-11 13 -24 21 -27 8 -3 15 -17 15 -31 0 -14 6 -28 14 -31 8 -3 18 -18 21 -34
3 -16 13 -34 21 -41 8 -6 14 -19 14 -29 0 -9 9 -25 20 -35 11 -10 20 -26 20
-36 0 -9 16 -41 35 -70 19 -30 35 -59 35 -65 0 -6 7 -17 15 -24 8 -7 15 -21
15 -31 0 -10 9 -23 20 -29 13 -7 20 -21 20 -40 0 -17 5 -30 11 -30 5 0 16 -15
24 -34 8 -19 19 -37 25 -41 5 -3 10 -14 10 -24 0 -10 9 -28 20 -41 11 -13 20
-27 20 -32 0 -4 33 -8 73 -8 60 0 77 4 95 20 12 12 22 27 22 36 0 8 6 17 14
20 8 3 17 23 21 44 4 21 13 44 21 51 8 6 14 19 14 29 0 10 7 23 15 30 8 6 17
22 21 33 8 29 36 90 95 211 27 54 49 104 49 111 0 7 7 18 15 25 8 7 15 23 15
35 0 12 9 34 20 48 11 14 20 34 20 45 0 12 4 24 10 27 5 3 21 32 36 63 106
238 139 297 161 297 17 0 18 -29 21 -593 2 -569 1 -594 -17 -630 -29 -58 -42
-64 -137 -68 -48 -2 -88 -5 -90 -6 -1 -2 -4 -58 -5 -126 -4 -116 -3 -123 16
-128 11 -2 247 -3 525 -2 l505 3 0 130 0 130 -118 3 c-127 3 -145 10 -167 68
-6 15 -10 306 -10 737 0 735 3 784 41 808 8 5 60 9 117 9 139 0 142 3 142 150
l0 110 -412 0 -413 0 -99 -203 c-270 -549 -390 -787 -396 -787 -14 0 -70 54
-70 67 0 7 -16 36 -35 63 -19 27 -35 53 -35 57 0 17 -44 95 -56 100 -8 3 -14
13 -14 23 0 9 -9 27 -20 40 -11 13 -20 29 -20 36 0 7 -13 32 -29 56 -16 24
-32 53 -35 66 -4 12 -11 22 -15 22 -10 0 -61 97 -61 115 0 8 -6 18 -13 22 -7
4 -18 19 -25 33 -22 43 -39 71 -51 83 -6 6 -11 21 -11 34 0 12 -9 27 -20 33
-11 6 -20 19 -20 30 0 10 -6 25 -14 32 -7 8 -21 28 -30 46 l-16 32 -416 2
c-228 2 -418 0 -422 -4z"/>
</g>
</svg>
